<?xml version="1.0" encoding="utf-8"?>
<!-- Generator: Adobe Illustrator 19.2.1, SVG Export Plug-In . SVG Version: 6.00 Build 0)  -->
<svg version="1.1" id="Capa_1" xmlns="http://www.w3.org/2000/svg" xmlns:xlink="http://www.w3.org/1999/xlink" x="0px" y="0px"
	 viewBox="0 0 465 465" style="enable-background:new 0 0 465 465;" xml:space="preserve">
<style type="text/css">
	.st0{fill:#FFFFFF;}
</style>
<g>
	<path class="st0" d="M354.7,119.4c-1.4-3.1-0.6-16.2,0.1-26.8c0.6-9.8,1.3-21,1.3-33c0-4.1-3.4-7.5-7.5-7.5h-21.2
		C324,35.1,309,22.4,291,22.4c-4.8,0-9.5,0.9-13.9,2.7C267.8,9.6,251,0,232.5,0c-18.5,0-35.3,9.6-44.6,25.1
		c-4.4-1.8-9.1-2.7-13.9-2.7c-17.9,0-32.9,12.8-36.4,29.7h-21.2c-4.1,0-7.5,3.4-7.5,7.5c0,12,0.7,23.2,1.3,33
		c0.7,10.6,1.5,23.7,0.1,26.8c-18,23.6-18.1,53.6-0.5,80.6c2.1,6.2,4.8,43,7.7,82c3.2,43.3,7.3,97.2,13.1,153.1
		c1.1,10.3,12.7,17.9,35.6,23.2c18.1,4.2,42.3,6.7,66.3,6.7c23.1,0,47-2.4,65.7-6.7c23.9-5.4,36.1-13,37.2-23.3
		c6.1-58.4,10.1-116.4,13-158.8c2.5-36.2,4.9-70.4,6.8-76.3C372.9,173,372.7,142.9,354.7,119.4z M173.9,37.4c4.6,0,9,1.4,12.8,4.1
		c1.9,1.3,4.2,1.7,6.4,1.1c2.2-0.6,4-2.2,4.8-4.4c5.8-14.1,19.3-23.2,34.5-23.2c15.2,0,28.7,9.1,34.5,23.2c0.9,2.1,2.6,3.7,4.8,4.4
		c2.2,0.6,4.6,0.2,6.4-1.1c3.8-2.7,8.2-4.1,12.8-4.1c9.6,0,17.8,6.1,20.9,14.7H153.1C156.2,43.5,164.4,37.4,173.9,37.4z
		 M342.4,192.1c-3.3,4.9-4.5,19.1-9,83.1c-3.1,44.6-6.9,100-13,158.1c-1,1.7-7.6,6.6-28.3,11c-17.2,3.6-39,5.7-59.7,5.7
		c-22.1,0-43.6-2.1-60.6-5.8c-19.5-4.3-25.7-9.3-26.4-10.8c-5.8-55.7-9.8-109.4-13-152.6c-5.1-68.5-6.5-83.6-9.9-88.7
		c-14.5-21.9-14.6-45.1-0.3-63.8c4.8-6.3,4.1-17.8,2.9-36.7c-0.5-7.5-1-15.8-1.2-24.5h217.2c-0.2,8.8-0.7,17-1.2,24.5
		c-1.2,19-2,30.5,2.9,36.7C357,147,356.9,170.2,342.4,192.1z"/>
	<path class="st0" d="M324.9,90.7L324.9,90.7c0.3-4.2-2.9-7.7-7-8c-4.1-0.3-7.7,2.9-8,7c-0.6,9.8-1.2,18.5-0.9,26.3H156.3
		c0.1-6.5-0.3-13.4-0.9-20.9c-0.1-1.8-0.2-3.6-0.4-5.5c-0.3-4.1-3.8-7.3-8-7c-4.1,0.3-7.3,3.8-7,8c0.1,1.9,0.2,3.7,0.4,5.5
		c0.7,10.8,1.3,19.2,0.4,26.3c0,0.2-0.1,0.4-0.1,0.6c-0.7,5.5-2.4,10.2-5.7,14.4c-10.7,13.9-10.7,30.4-0.1,46.4
		c5.5,8.4,6.4,18,11.4,90.4c0.3,4,3.6,7,7.5,7c0.2,0,0.9,7.5,1,7.5c4.1-0.3,6.7-11.4,6.5-15.5c-5.3-75.9-5.9-85.6-13.9-97.6
		c-7-10.5-7.2-20.3-0.5-29c3.7-4.9,6.1-10,7.4-15.5h156.7c1.5,5.5,3.9,10.6,7.7,15.5c6.4,8.3,5.9,17.8-1.5,29
		c-8,12-8.6,21.8-13.9,97.6c-0.5,7.8-1,15.3-1.5,22.6c-2,29.8-3.9,58-7.9,98.9c-11.7,2.5-37.6,5.4-61.6,5.4c-24,0-49.8-2.9-61.6-5.4
		c-3.7-37.2-5.5-63.5-7.4-91.5c-0.3-4.1-4.4-14.8-8.5-14.5c-4.1,0.3-6.8,11.4-6.5,15.5c2,29.4,3.9,57,8,97.2
		c0.3,2.9,2.3,5.4,5.1,6.4c10.4,3.5,42.9,7.4,70.9,7.4s60.5-3.9,70.9-7.4c2.8-0.9,4.8-3.4,5.1-6.4c4.4-44,6.4-73.4,8.5-104.6
		c0.5-7.3,1-14.7,1.5-22.6c5-72.4,5.9-82,11.4-90.4c10.9-16.4,11.2-32.9,0.9-46.4C322.6,126.7,323.4,113.1,324.9,90.7z"/>
</g>
<path class="st0" d="M311.9,126H153.1L136,153l13,49l6,86.7c0,0,0,104.3,11,113.3s107,6,107,6l27-8l20-218l12-22L311.9,126z
	 M290.7,227.7l-59.4,59.3c-1.8,1.8-3.9,2.7-6.3,2.7c-2.4,0-4.5-0.9-6.3-2.7l-41.3-41.3c-1.8-1.8-2.7-3.9-2.7-6.3
	c0-2.4,0.9-4.5,2.7-6.3l14.3-14.3c1.8-1.8,3.9-2.7,6.3-2.7s4.5,0.9,6.3,2.7l20.7,20.7l38.7-38.7c1.8-1.8,3.9-2.7,6.3-2.7
	s4.6,0.9,6.3,2.7l14.3,14.3c1.8,1.8,2.7,3.9,2.7,6.3C293.4,223.8,292.5,225.9,290.7,227.7z"/>
</svg>
