<svg id="Layer_1" data-name="Layer 1" xmlns="http://www.w3.org/2000/svg" xmlns:xlink="http://www.w3.org/1999/xlink" viewBox="0 0 27.2 27.37"><defs><style>.cls-1,.cls-12{fill:none;}.cls-2{fill:#005293;}.cls-3{fill:#fecb00;}.cls-4{fill:#00247d;}.cls-5{clip-path:url(#clip-path);}.cls-10,.cls-12,.cls-6{stroke:#fff;}.cls-6{stroke-width:2.22px;}.cls-7{clip-path:url(#clip-path-2);}.cls-8{clip-path:url(#clip-path-3);}.cls-11,.cls-9{stroke:#cf142b;}.cls-9{stroke-width:1.33px;}.cls-10{stroke-width:4.43px;}.cls-11{stroke-width:2.66px;}.cls-12{stroke-miterlimit:10;stroke-width:1.14px;}</style><clipPath id="clip-path" transform="translate(-1.97 -3.46)"><rect class="cls-1" x="2.96" y="11.02" width="18.83" height="18.82"/></clipPath><clipPath id="clip-path-2" transform="translate(-1.97 -3.46)"><path class="cls-1" d="M3,11v9.41H21.79v9.41h0Zm18.83,0H12.37V29.84H3Z"/></clipPath><clipPath id="clip-path-3" transform="translate(-1.97 -3.46)"><rect class="cls-1" x="2.95" y="11.01" width="18.83" height="18.82"/></clipPath></defs><title>british-flag</title><rect class="cls-2" x="11.04" width="16.16" height="16.16"/><rect class="cls-3" x="16.09" width="2.02" height="16.16"/><rect class="cls-3" x="11.04" y="6.46" width="16.16" height="3.23"/><path class="cls-4" d="M3,11v18.8H21.78V11H3Z" transform="translate(-1.97 -3.46)"/><g class="cls-5"><path class="cls-6" d="M3,11L21.79,29.84m0-18.82L3,29.84" transform="translate(-1.97 -3.46)"/></g><g class="cls-7"><g class="cls-8"><path class="cls-9" d="M3,11L21.79,29.84m0-18.82L3,29.84" transform="translate(-1.97 -3.46)"/></g></g><path class="cls-10" d="M12.37,11V29.84M3,20.43H21.79" transform="translate(-1.97 -3.46)"/><path class="cls-11" d="M12.37,11V29.84M3,20.43H21.79" transform="translate(-1.97 -3.46)"/><rect class="cls-12" x="0.57" y="6.8" width="20" height="20" rx="3" ry="3"/></svg>