<svg id="svg2" xmlns="http://www.w3.org/2000/svg" viewBox="0 0 274.67 274.67"><defs><style>.cls-1{fill:#cb9832;stroke:#000;}.cls-1,.cls-3,.cls-4,.cls-5,.cls-6{stroke-miterlimit:10;}.cls-1,.cls-6{stroke-width:7px;}.cls-2{fill:#183319;}.cls-3,.cls-4,.cls-7,.cls-8{fill:#fff;}.cls-3,.cls-4,.cls-6{stroke:#fff;}.cls-3{stroke-width:0.45px;}.cls-4{stroke-width:2.65px;}.cls-5,.cls-6{fill:none;}.cls-5{stroke:#183319;stroke-width:30px;}.cls-8{font-size:18px;font-family:Myriad Pro;font-weight:700;}</style></defs><title>logo</title><circle id="BG" class="cls-1" cx="137.33" cy="137.33" r="99.33"/><path id="Ship" class="cls-2" d="M141,62.54L37.8,152.4v1.11l41,24.41-5.55,4.44,24.41,22.19h142V193.44l1.11-3.33,6.66-3.33L250.8,179l-1.11-14.42v-5.55l2.22-6.66L207.54,95.82l3.33-11.09V83.61l-11.09,2.22L185.35,67l-2.22-1.11-39.94-3.33H141Zm0,1.11V85.83l-24.41,5.55v1.11c-4.44,11.09-4.44,24.41,2.22,35.5v2.22c-4.44,10-2.22,21.08,3.33,30H119.9l-4.44,4.44c-20-31.06-18.86-61-1.11-77.66C131,71.41,141,63.65,141,63.65Zm2.22,0L183.13,67V89.16l-21.08,5.55v1.11h1.11l-3.33,15.53c-5.55-7.77-1.11-20,3.33-27.73V82.51l-19.41,2.77Zm42.16,4.44,13.31,17.75L185.9,88.61ZM158.72,84.72l-15,5.55V87.5Zm49.92,0.55L202,88.05l-1.11-1.11Zm-8.87,2.22,1.11,1.11-15,5V90.83Zm-58.8.55v2.22c-5.55,2.22-12.2,3.33-17.75,1.11Zm42.16,3.33V93.6l-14.42,1.11Zm24.41,5.55L250.8,152.4l-26.62,4.44-7.77,5.55c-4.44-11.09-2.22-24.41,1.11-35.5h1.11v-2.22h-1.11C209.76,116.9,205.32,108,207.54,96.93Zm-48.81,24.41-13.31,2.22v-1.11Zm-16.64,1.11v1.66l-20,3.88C127.77,123.33,136.43,122.89,142.08,122.44ZM160.94,123l-15.53,5v-2.22Zm-18.86,3.33v2.77a47.75,47.75,0,0,1-17.75,0Zm71-.55-24.41,3.33v-2.22C196.44,125.22,204.76,125.77,213.08,125.77Zm2.22,1.11a64.25,64.25,0,0,1-26.62,7.77v-3.33ZM184.24,128v1.66l-11.09,2.77Zm-20,3.33,2.22,3.33-3.33,8.88S162.05,135.76,164.27,131.32Zm20,0.55v2.77H169.82ZM114.35,164.6c-8.87,11.09-19.41,14.42-32.17,8.88L40,152.4a25.66,25.66,0,0,1,7.77-6.66C72.19,131.87,95.49,152.4,114.35,164.6Zm28.84-6.66v2.22l-14.42,1.11A60.78,60.78,0,0,1,143.19,157.94Zm3.33,0,15.53,1.11-15.53,1.11v-2.22Zm15.53,2.22c0.55,5,3.66,12,4.44,13.31v2.22l20-1.11V187.9c-15.53,2.22-22.19-5.55-27.73-18.86l-6.66-1.11L151,163.49h-4.44v-2.22Zm-18.86,1.11v1.11l-7.21-.55ZM186.46,169v3.33L172,173.47Zm3.33,0,18.86,1.11-18.86,2.22V169Zm18.86,3.33c0,12.2-7.77,16.09-18.86,15.53V174.58Z" transform="translate(-6.57 -6.57)"/><g id="Clouds"><path id="path86" class="cls-3" d="M117.91,237.91c-9.31,0-19-6.5-19-6.5-23.7-2.76-20.25-17.23-20.25-17.23-8.09-1-15.14-7-15.14-7l-0.31.36s-1.07-4.48,12.36-4.22c0,0,6.41-6.24,19.38-2.9a30.37,30.37,0,0,1,15.56-4.57H111c9.61,0,14.8,3.78,14.8,3.78,11.9-3.16,19.38,3.07,19.38,3.07,8.55-2.72,13.58,1.93,13.58,1.93,5.8-1,6.41,3.08,6.41,3.08h0.15s1.4-.87-1.65.8c0,0,2.92-1.24-5.63,3.33,0,0-6.18,28.06-19.6,30.54h-11l-6-3.5" transform="translate(-6.57 -6.57)"/><path id="path86-2" data-name="path86" class="cls-4" d="M211.41,219.91c-12,0-20,14-20,14-23.18-.24-45,10.5-45,10.5-10.4-1.06-5.62-34.63-5.62-34.63l-4.38,32.13s2.62-36.63,19.88-36.34c0,0,8.23-6.81,24.91-3.17a43.85,43.85,0,0,1,20-5h0.59c12.35,0,19,4.13,19,4.13,15.3-3.46,24.9,3.36,24.9,3.36,11-3,9.59,1.18,9.59,1.18h0l-5.79,2.23s5.4-1.68,1.48.14c0,0,4.38-2.91-6.6,2.08,0,0,3.45,1.76-13.79,4.47,0,0,3.87,1.52-6.52,1.52l-3.58.69" transform="translate(-6.57 -6.57)"/></g><circle id="BG_CIRCLE" data-name="BG CIRCLE" class="cls-5" cx="136.67" cy="136.5" r="116.33"/><circle class="cls-6" cx="137.33" cy="137.33" r="99.33"/><circle class="cls-6" cx="137.33" cy="137.33" r="133.83"/><polygon class="cls-7" points="253.83 123.92 257.3 130.95 265.06 132.08 259.45 137.56 260.77 145.28 253.83 141.63 246.89 145.28 248.22 137.56 242.6 132.08 250.36 130.95 253.83 123.92"/><polygon class="cls-7" points="19.83 123.92 23.3 130.95 31.06 132.08 25.45 137.56 26.77 145.28 19.83 141.63 12.89 145.28 14.22 137.56 8.6 132.08 16.36 130.95 19.83 123.92"/><text class="cls-8" transform="translate(26.91 186.83) rotate(63.34)">P</text><text class="cls-8" transform="matrix(0.55, 0.84, -0.84, 0.55, 33.24, 199.01)">u</text><text class="cls-8" transform="matrix(0.64, 0.77, -0.77, 0.64, 41.06, 210.61)">b</text><text class="cls-8" transform="matrix(0.7, 0.71, -0.71, 0.7, 49.67, 220.57)"> </text><text class="cls-8" transform="matrix(0.75, 0.66, -0.66, 0.75, 53.72, 224.74)">a</text><text class="cls-8" transform="matrix(0.82, 0.58, -0.58, 0.82, 63.42, 233.12)">n</text><text class="cls-8" transform="translate(75.04 241.07) rotate(28.49)">d</text><text class="cls-8" transform="matrix(0.91, 0.41, -0.41, 0.91, 86.68, 247.12)"> </text><text class="cls-8" transform="matrix(0.95, 0.32, -0.32, 0.95, 92.46, 249.77)">D</text><text class="cls-8" transform="matrix(0.97, 0.23, -0.23, 0.97, 107.28, 254.46)">i</text><text class="cls-8" transform="matrix(0.99, 0.14, -0.14, 0.99, 114.61, 256.18)">n</text><text class="cls-8" transform="translate(127.6 257.84) rotate(3.4)">i</text><text class="cls-8" transform="translate(135.05 258.29) rotate(-1.39)">n</text><text class="cls-8" transform="translate(149.06 257.75) rotate(-7.99)">g</text><text class="cls-8" transform="matrix(0.98, -0.22, 0.22, 0.98, 161.79, 255.73)"> </text><text class="cls-8" transform="translate(167.22 254.54) rotate(-16.13)">s</text><text class="cls-8" transform="translate(176.75 251.65) rotate(-20.2)">i</text><text class="cls-8" transform="translate(183.8 249.07) rotate(-25.12)">n</text><text class="cls-8" transform="translate(196.09 243.06) rotate(-31.03)">c</text><text class="cls-8" transform="matrix(0.8, -0.59, 0.59, 0.8, 205.27, 237.43)">e</text><text class="cls-8" transform="matrix(0.76, -0.65, 0.65, 0.76, 214.54, 230.35)"> </text><text class="cls-8" transform="translate(219.03 226.54) rotate(-44.85)">1</text><text class="cls-8" transform="matrix(0.63, -0.78, 0.78, 0.63, 228.33, 217.04)">9</text><text class="cls-8" transform="translate(236.53 206.58) rotate(-57.4)">8</text><text class="cls-8" transform="translate(243.56 195.25) rotate(-63.73)">3</text><text class="cls-8" transform="translate(48.28 71.21) rotate(-50.82)">T</text><text class="cls-8" transform="translate(55.85 62.07) rotate(-44.55)">h</text><text class="cls-8" transform="matrix(0.79, -0.62, 0.62, 0.79, 65.03, 53.24)">e</text><text class="cls-8" transform="matrix(0.83, -0.56, 0.56, 0.83, 73.72, 46.58)"> </text><text class="cls-8" transform="translate(77.91 43.68) rotate(-30)">F</text><text class="cls-8" transform="matrix(0.9, -0.43, 0.43, 0.9, 87.29, 38.42)">l</text><text class="cls-8" transform="translate(93.2 35.56) rotate(-21.02)">y</text><text class="cls-8" transform="translate(103.53 31.76) rotate(-16.46)">i</text><text class="cls-8" transform="translate(109.92 29.82) rotate(-11.52)">n</text><text class="cls-8" transform="matrix(1, -0.08, 0.08, 1, 122.57, 27.38)">g</text><text class="cls-8" transform="matrix(1, -0.02, 0.02, 1, 134.62, 26.57)"> </text><text class="cls-8" transform="translate(140.01 26.39) rotate(4.55)">D</text><text class="cls-8" transform="translate(155.14 27.83) rotate(11.89)">u</text><text class="cls-8" transform="translate(167.25 30.57) rotate(17.34)">t</text><text class="cls-8" transform="translate(175.02 33.03) rotate(21.98)">c</text><text class="cls-8" transform="matrix(0.88, 0.47, -0.47, 0.88, 184.45, 36.88)">h</text><text class="cls-8" transform="matrix(0.81, 0.59, -0.59, 0.81, 196.32, 43.2)">m</text><text class="cls-8" transform="translate(210.81 54.26) rotate(43.95)">a</text><text class="cls-8" transform="translate(219.17 62.45) rotate(50.23)">n</text></svg>