<svg id="Capa_1" data-name="Capa 1" xmlns="http://www.w3.org/2000/svg" viewBox="0 0 222 222"><defs><style>.cls-1{fill:#fff;}</style></defs><title>checkbox1</title><path class="cls-1" d="M169.7,105.7L110.3,165a8.7,8.7,0,0,1-12.6,0L56.4,123.7a8.7,8.7,0,0,1,0-12.6L70.7,96.8a8.7,8.7,0,0,1,12.6,0L104,117.5l38.7-38.7a8.63,8.63,0,0,1,6.3-2.7,8.47,8.47,0,0,1,6.3,2.7l14.3,14.3a8.63,8.63,0,0,1,2.7,6.3A8.17,8.17,0,0,1,169.7,105.7Z"/><path class="cls-1" d="M204,18V204H18V18H204m0-18H18A18,18,0,0,0,0,18V204a18,18,0,0,0,18,18H204a18,18,0,0,0,18-18V18A18,18,0,0,0,204,0h0Z"/></svg>