<?xml version="1.0" encoding="utf-8"?>
<!-- Generator: Adobe Illustrator 19.2.1, SVG Export Plug-In . SVG Version: 6.00 Build 0)  -->
<svg version="1.1" xmlns="http://www.w3.org/2000/svg" xmlns:xlink="http://www.w3.org/1999/xlink" x="0px" y="0px"
	 viewBox="0 0 465 465" style="enable-background:new 0 0 465 465;" xml:space="preserve">
<style type="text/css">
	.st0{fill:#FFFFFF;}
	.st1{fill:none;stroke:#FFFFFF;stroke-width:14;stroke-miterlimit:10;}
	.st2{fill:none;stroke:#FFFFFF;stroke-width:12;stroke-miterlimit:10;}
</style>
<g id="Capa_1">
	<g>
		<g>
			<g>
				<path class="st0" d="M377.2,87.6c-38.8-2.2-71.6,27.6-73.8,65.9c-0.1,1-0.1,1.9-0.1,2.9c0,0.8-0.7,1.5-1.5,1.5l-214.1-0.1
					c-2.4,0-4.2,2-4,4.4c10.4,116.1,88.7,153.2,103.6,159.2c1.5,0.6,2.5,2,2.5,3.7c0,5.9,0,20,0,27.1c0,2.2,1.8,3.9,3.9,3.9
					c4.6,0,11.6,0,16.8,0c2.2,0,4,1.8,4,4l0,70.3c0,0.5-0.6,1-1,1.3c-0.2,0.2-0.5,0.3-0.8,0.3c-4.6,0.4-50.8,5-50.8,16.4
					c0,14.5,40.7,16.7,64.9,16.7s64.9-2.2,64.9-16.7c0-12-27.8-15.6-51.2-16.4c-0.8,0-0.6-0.7-0.6-1.6l0-70.2c0-2.2,1.8-4,4-4
					c5.5,0,13.2,0,17.9,0c2.2,0,4-1.8,4-4l0-27.7c0-1.3,0.7-2.6,1.8-3.3c12.8-8.3,67.8-16.1,94.3-92.8c0.2-0.6,0.8-1.1,1.5-1.1
					c5.3,0,0.3-0.2,6,0.1c1.3,0.1,2.7,0.1,4,0.1c37.1,0,67.7-29,69.8-66C445.3,122.9,415.7,89.8,377.2,87.6z M269.7,446.8
					c1.7,0.3,1.7,2.7,0,3c-9.1,1.8-23.2,3.3-42,3.3c-18.8,0-32.9-1.5-42-3.3c-1.7-0.3-1.7-2.7,0-3c9.1-1.8,23.2-3.3,42-3.3
					C246.5,443.5,260.6,445,269.7,446.8z M362.5,169.8c0.6,0,1.1,0.5,1,1.1c-8,93.3-64.5,127.7-107.3,140.1
					c-1.5,0.4-2.4,2.1-2.4,3.7c0,5.6,0,18.8,0,25.6c0,2.2-1.8,4-4,4c-9.7,0-34.5,0-44.3,0c-2.2,0-4-1.8-4-4c0-6.3,0-18.5,0-24.4
					c0-1.9-1.3-3.5-3.2-3.9c-58.2-11.2-102.1-95.8-103.1-140.7c0-0.9,0.7-1.6,1.5-1.6L362.5,169.8z M360.6,158c0,0-0.1,0-0.1,0
					h-46.7c-0.8,0-1.5-0.7-1.5-1.5c0-0.8,0-1.6,0-2.4c1.8-32.3,28.6-57.6,60.9-57.6c1.2,0,2.3,0,3.5,0.1
					c16.3,0.9,31.2,8.1,42.1,20.3c10.9,12.2,16.3,27.8,15.4,44.1c-1.9,33.5-30.6,59.5-64.4,57.5c-2.9-0.2-1.9,0.3-2.3,0.2
					c-1-0.1-1.5-1.1-1.2-2c5.9-17.1,7-29.6,8.6-46.8c0,0-2.5,0-2.5-0.1"/>
				<path class="st0" d="M370.1,123.7l0.5-9.6c0.1-2.5-2.1-4.6-4.5-4.2c-1.8,0.3-3.7,0.7-5.4,1.1c-2.4,0.7-3.6,3.4-2.5,5.6l4.3,8.6
					C364.4,128.9,369.9,127.7,370.1,123.7z"/>
				<path class="st0" d="M339.9,129.6l8,5.3c3.4,2.2,7.6-1.5,5.8-5.1l-4.3-8.6c-1.1-2.2-4.1-2.9-6-1.4c-1.4,1.1-2.8,2.4-4.1,3.7
					C337.4,125.3,337.7,128.3,339.9,129.6z"/>
				<path class="st0" d="M330.3,150.1l9.6,0.5c4.1,0.2,5.8-5.1,2.4-7.3l-8-5.3c-2.1-1.4-5-0.5-5.9,1.8c-0.7,1.7-1.3,3.5-1.7,5.3
					C326,147.5,327.8,149.9,330.3,150.1z"/>
				<path class="st0" d="M410.9,127.5c-1.1-1.4-2.4-2.8-3.7-4.1c-1.8-1.8-4.8-1.4-6.1,0.7l-5.3,8c-2.2,3.4,1.5,7.6,5.1,5.8l8.6-4.3
					C411.8,132.4,412.5,129.5,410.9,127.5z"/>
				<path class="st0" d="M380.7,114.6l-0.5,9.6c-0.2,4.1,5.1,5.8,7.3,2.4l5.3-8c1.4-2.1,0.5-5-1.8-5.9c-1.7-0.7-3.5-1.3-5.3-1.8
					C383.2,110.3,380.8,112.1,380.7,114.6z"/>
				<path class="st0" d="M407.1,154.4l9.6,0.5c2.5,0.1,4.6-2.1,4.2-4.5c-0.3-1.8-0.7-3.7-1.1-5.4c-0.7-2.4-3.4-3.6-5.6-2.5l-8.6,4.3
					C401.9,148.7,403,154.2,407.1,154.4z"/>
				<path class="st0" d="M403.2,195.2c1.4-1.1,2.8-2.4,4.1-3.7c1.8-1.8,1.4-4.8-0.7-6.1l-8-5.3c-3.4-2.2-7.6,1.5-5.8,5.1l4.3,8.6
					C398.3,196.1,401.2,196.7,403.2,195.2z"/>
				<path class="st0" d="M380.3,205.1c1.8-0.3,3.7-0.7,5.4-1.1c2.4-0.7,3.6-3.4,2.5-5.6l-4.3-8.6c-1.8-3.7-7.3-2.5-7.6,1.6l-0.5,9.6
					C375.7,203.5,377.9,205.5,380.3,205.1z"/>
				<path class="st0" d="M418,175.2c0.7-1.7,1.3-3.5,1.8-5.3c0.7-2.4-1.1-4.8-3.7-5l-9.6-0.5c-4.1-0.2-5.8,5.1-2.4,7.3l8,5.3
					C414.2,178.4,417.1,177.5,418,175.2z"/>
				<path class="st1" d="M310.4,189.1H127.2c-4.7,0-8.1,4.6-6.7,9.1c10.9,34.4,53.1,100.4,107.6,100.4c47.7,0,110.7-51.3,116-109.6"
					/>
			</g>
		</g>
	</g>
	<circle class="st0" cx="310.4" cy="189.1" r="6.9"/>
	<circle class="st0" cx="344.2" cy="189.1" r="6.9"/>
	<path class="st0" d="M361.6,158c-5.7,0,9.9,19.7,10.2,14.6c3.9,0,3.1-4.3,3.2-8.2c0-3.6-2.8-6.5-6.4-6.5H361.6z"/>
</g>
<g id="Layer_2">
	<path class="st0" d="M280,182.2l-122.3,4.2h-34.9l9.6,33.5l20.7,27.7c0,0,20.4,25.7,31.4,34.7s46.7,13.3,46.7,13.3l72.4-25.3
		l30.6-51.6l10.1-36.5H280z M290.7,227.7L231.3,287c-1.8,1.8-3.9,2.7-6.3,2.7c-2.4,0-4.5-0.9-6.3-2.7l-41.3-41.3
		c-1.8-1.8-2.7-3.9-2.7-6.3c0-2.4,0.9-4.5,2.7-6.3l14.3-14.3c1.8-1.8,3.9-2.7,6.3-2.7s4.5,0.9,6.3,2.7l20.7,20.7l38.7-38.7
		c1.8-1.8,3.9-2.7,6.3-2.7s4.6,0.9,6.3,2.7l14.3,14.3c1.8,1.8,2.7,3.9,2.7,6.3C293.4,223.8,292.5,225.9,290.7,227.7z"/>
</g>
<g id="Layer_3">
	<line class="st2" x1="122.8" y1="50.4" x2="163.1" y2="158"/>
</g>
</svg>
