<svg id="Layer_1" data-name="Layer 1" xmlns="http://www.w3.org/2000/svg" xmlns:xlink="http://www.w3.org/1999/xlink" viewBox="0 0 27.86 27.75"><defs><style>.cls-1,.cls-12{fill:none;}.cls-2{fill:#00247d;}.cls-3{clip-path:url(#clip-path);}.cls-12,.cls-4,.cls-8{stroke:#fff;}.cls-4{stroke-width:1.88px;}.cls-5{clip-path:url(#clip-path-2);}.cls-6{clip-path:url(#clip-path-3);}.cls-7,.cls-9{stroke:#cf142b;}.cls-7{stroke-width:1.13px;}.cls-8{stroke-width:3.76px;}.cls-9{stroke-width:2.26px;}.cls-10{fill:#005293;}.cls-11{fill:#fecb00;}.cls-12{stroke-miterlimit:10;stroke-width:1.14px;}</style><clipPath id="clip-path" transform="translate(-1.97 -3.08)"><rect class="cls-1" x="13.13" y="3.74" width="16.05" height="15.87"/></clipPath><clipPath id="clip-path-2" transform="translate(-1.97 -3.08)"><path class="cls-1" d="M13.13,3.74v7.94h16v7.94h0Zm16,0h-8V19.62h-8Z"/></clipPath><clipPath id="clip-path-3" transform="translate(-1.97 -3.08)"><rect class="cls-1" x="13.12" y="3.74" width="16.05" height="15.87"/></clipPath></defs><title>swedish-flag</title><path class="cls-2" d="M13.13,3.75V19.61h16V3.75h-16Z" transform="translate(-1.97 -3.08)"/><g class="cls-3"><path class="cls-4" d="M13.13,3.74l16,15.87m0-15.87-16,15.87" transform="translate(-1.97 -3.08)"/></g><g class="cls-5"><g class="cls-6"><path class="cls-7" d="M13.13,3.74l16,15.87m0-15.87-16,15.87" transform="translate(-1.97 -3.08)"/></g></g><path class="cls-8" d="M21.15,3.74V19.62m-8-7.94h16" transform="translate(-1.97 -3.08)"/><path class="cls-9" d="M21.15,3.74V19.62m-8-7.94h16" transform="translate(-1.97 -3.08)"/><rect class="cls-10" x="1.02" y="7.6" width="19.22" height="19.11"/><rect class="cls-11" x="7.03" y="7.6" width="2.4" height="19.11"/><rect class="cls-11" x="1.02" y="15.25" width="19.22" height="3.82"/><rect class="cls-12" x="0.57" y="7.18" width="20" height="20" rx="3" ry="3"/></svg>