<?xml version="1.0" encoding="utf-8"?>
<!-- Generator: Adobe Illustrator 19.2.1, SVG Export Plug-In . SVG Version: 6.00 Build 0)  -->
<svg version="1.1" id="Layer_1" xmlns="http://www.w3.org/2000/svg" xmlns:xlink="http://www.w3.org/1999/xlink" x="0px" y="0px"
	 viewBox="0 0 150.4 150.4" style="enable-background:new 0 0 150.4 150.4;" xml:space="preserve">
<style type="text/css">
	.st0{fill:none;}
	.st1{opacity:0.48;fill:#0099CC;}
	.st2{fill:#FFFFFF;}
	.st3{fill:#2E3192;}
	.st4{fill:url(#SVGID_1_);}
</style>
<pattern  x="-230.8" y="-354.6" width="200" height="200" patternUnits="userSpaceOnUse" id="Table_Cloth_Bule" viewBox="0 -200 200 200" style="overflow:visible;">
	<g>
		<rect y="-200" class="st0" width="200" height="200"/>
		<rect x="0" y="-200" class="st1" width="200" height="100"/>
		<rect x="50" y="-150" transform="matrix(4.489304e-011 -1 1 4.489304e-011 250 50)" class="st1" width="200" height="100"/>
	</g>
</pattern>
<g id="WHITE_BG">
	<path class="st2" d="M75.9,143.7c-2.9,0-5.7-0.6-8.3-1.8l-15.4-6.8c-0.5-0.2-0.9-0.4-1.4-0.6L34.9,129c-5.7-2-10.1-6.4-12.3-11.9
		l-6.1-15.7c-0.2-0.5-0.4-0.9-0.6-1.4L8.7,84.7C6.1,79.3,6,73.1,8.4,67.6l6.8-15.4c0.2-0.5,0.4-0.9,0.6-1.4l5.6-15.9
		c2-5.7,6.4-10.1,11.9-12.3l15.7-6.1c0.5-0.2,0.9-0.4,1.4-0.6l15.2-7.3c2.7-1.3,5.8-2,8.8-2c2.9,0,5.7,0.6,8.3,1.8l15.4,6.8
		c0.5,0.2,0.9,0.4,1.4,0.6l15.9,5.6c5.7,2,10.1,6.4,12.3,11.9l6.1,15.7c0.2,0.5,0.4,0.9,0.6,1.4l7.3,15.2c2.6,5.4,2.7,11.7,0.2,17.1
		l-6.8,15.4c-0.2,0.5-0.4,0.9-0.6,1.4l-5.6,15.9c-2,5.7-6.4,10.1-11.9,12.3l-15.7,6.1c-0.5,0.2-0.9,0.4-1.4,0.6l-15.2,7.3
		C82,143,78.9,143.7,75.9,143.7z"/>
	<path class="st3" d="M74.5,7.2c2.8,0,5.5,0.6,8.1,1.7L98,15.7c0.5,0.2,0.9,0.4,1.4,0.6l15.9,5.6c5.5,1.9,9.9,6.2,12,11.7l6.1,15.7
		c0.2,0.5,0.4,1,0.6,1.4l7.3,15.2c2.5,5.3,2.6,11.4,0.2,16.7L134.7,98c-0.2,0.5-0.4,0.9-0.6,1.4l-5.6,15.9c-1.9,5.5-6.2,9.9-11.7,12
		l-15.7,6.1c-0.5,0.2-1,0.4-1.4,0.6l-15.2,7.3c-2.7,1.3-5.7,2-8.6,2c-2.8,0-5.5-0.6-8.1-1.7l-15.4-6.8c-0.5-0.2-0.9-0.4-1.4-0.6
		l-15.9-5.6c-5.5-1.9-9.9-6.2-12-11.7L17,101.1c-0.2-0.5-0.4-1-0.6-1.4L9.1,84.5c-2.5-5.3-2.6-11.4-0.2-16.7l6.8-15.4
		c0.2-0.5,0.4-0.9,0.6-1.4l5.6-15.9c1.9-5.5,6.2-9.9,11.7-12L49.2,17c0.5-0.2,1-0.4,1.4-0.6l15.2-7.3C68.6,7.8,71.5,7.2,74.5,7.2
		 M74.5,6.2L74.5,6.2c-3.1,0-6.2,0.7-9.1,2.1l-15.2,7.3c-0.4,0.2-0.9,0.4-1.3,0.6l-15.7,6.1c-5.7,2.2-10.2,6.8-12.2,12.6l-5.6,15.9
		c-0.2,0.5-0.3,0.9-0.5,1.4L8,67.4c-2.5,5.6-2.4,12,0.3,17.6l7.3,15.2c0.2,0.4,0.4,0.9,0.6,1.3l6.1,15.7c2.2,5.7,6.8,10.2,12.6,12.2
		l15.9,5.6c0.5,0.2,0.9,0.3,1.4,0.5l15.4,6.8c2.7,1.2,5.6,1.8,8.5,1.8c3.1,0,6.2-0.7,9.1-2.1l15.2-7.3c0.4-0.2,0.9-0.4,1.3-0.6
		l15.7-6.1c5.7-2.2,10.2-6.8,12.2-12.6l5.6-15.9c0.2-0.5,0.3-0.9,0.5-1.4l6.8-15.4c2.5-5.6,2.4-12-0.3-17.6l-7.3-15.2
		c-0.2-0.4-0.4-0.9-0.6-1.3l-6.1-15.7c-2.2-5.7-6.8-10.2-12.6-12.2l-15.9-5.6c-0.5-0.2-0.9-0.3-1.4-0.5L83,8
		C80.3,6.8,77.4,6.2,74.5,6.2L74.5,6.2z"/>
</g>
<g id="CLOTH">
	
		<pattern  id="SVGID_1_" xlink:href="#Table_Cloth_Bule" patternTransform="matrix(8.531622e-002 -1.237332e-003 1.237332e-003 8.531622e-002 -6962.9727 -6842.877)">
	</pattern>
	<path class="st4" d="M82.6,8.9L98,15.7c0.5,0.2,0.9,0.4,1.4,0.6l15.9,5.6c5.5,1.9,9.9,6.2,12,11.7l6.1,15.7c0.2,0.5,0.4,1,0.6,1.4
		l7.3,15.2c2.5,5.3,2.6,11.4,0.2,16.7L134.7,98c-0.2,0.5-0.4,0.9-0.6,1.4l-5.6,15.9c-1.9,5.5-6.2,9.9-11.7,12l-15.7,6.1
		c-0.5,0.2-1,0.4-1.4,0.6l-15.2,7.3c-5.3,2.5-11.4,2.6-16.7,0.2l-15.4-6.8c-0.5-0.2-0.9-0.4-1.4-0.6l-15.9-5.6
		c-5.5-1.9-9.9-6.2-12-11.7L17,101.1c-0.2-0.5-0.4-1-0.6-1.4L9.1,84.5c-2.5-5.3-2.6-11.4-0.2-16.7l6.8-15.4c0.2-0.5,0.4-0.9,0.6-1.4
		l5.6-15.9c1.9-5.5,6.2-9.9,11.7-12L49.2,17c0.5-0.2,1-0.4,1.4-0.6l15.2-7.3C71.1,6.6,77.2,6.5,82.6,8.9z"/>
</g>
</svg>
