<?xml version="1.0" encoding="utf-8"?>
<!-- Generator: Adobe Illustrator 19.2.1, SVG Export Plug-In . SVG Version: 6.00 Build 0)  -->
<svg version="1.1" id="Layer_1" xmlns="http://www.w3.org/2000/svg" xmlns:xlink="http://www.w3.org/1999/xlink" x="0px" y="0px"
	 viewBox="0 0 150.4 150.4" style="enable-background:new 0 0 150.4 150.4;" xml:space="preserve">
<style type="text/css">
	.st0{fill:none;}
	.st1{opacity:0.48;fill:#0099CC;}
	.st2{fill:#FFFFFF;}
	.st3{fill:#FFF200;}
	.st4{fill:url(#SVGID_1_);}
</style>
<pattern  x="-230.8" y="-354.6" width="200" height="200" patternUnits="userSpaceOnUse" id="Table_Cloth_Bule" viewBox="0 -200 200 200" style="overflow:visible;">
	<g>
		<rect y="-200" class="st0" width="200" height="200"/>
		<rect x="0" y="-200" class="st1" width="200" height="100"/>
		<rect x="50" y="-150" transform="matrix(4.489304e-011 -1 1 4.489304e-011 250 50)" class="st1" width="200" height="100"/>
	</g>
</pattern>
<g id="WHITE_BG">
	<path class="st2" d="M75.9,145.2c-3.1,0-6.1-0.6-8.9-1.9l-15.4-6.8c-0.4-0.2-0.9-0.4-1.3-0.5l-15.9-5.6
		c-6.1-2.1-10.9-6.8-13.2-12.8l-6.1-15.7c-0.2-0.4-0.4-0.9-0.6-1.3L7.3,85.4C4.5,79.6,4.4,72.9,7,67l6.8-15.4
		c0.2-0.4,0.4-0.9,0.5-1.3L20,34.4c2.1-6.1,6.8-10.9,12.8-13.2l15.7-6.1c0.4-0.2,0.9-0.4,1.3-0.6L65,7.3c2.9-1.4,6.2-2.2,9.5-2.2
		c3.1,0,6.1,0.6,8.9,1.9l15.4,6.8c0.4,0.2,0.9,0.4,1.3,0.5L116,20c6.1,2.1,10.9,6.8,13.2,12.8l6.1,15.7c0.2,0.4,0.4,0.9,0.6,1.3
		L143,65c2.8,5.8,2.9,12.5,0.3,18.4l-6.8,15.4c-0.2,0.4-0.4,0.9-0.5,1.3l-5.6,15.9c-2.1,6.1-6.8,10.9-12.8,13.2l-15.7,6.1
		c-0.4,0.2-0.9,0.4-1.3,0.6L85.4,143C82.4,144.5,79.1,145.2,75.9,145.2z"/>
	<path class="st3" d="M74.5,7.2c2.8,0,5.5,0.6,8.1,1.7L98,15.7c0.5,0.2,0.9,0.4,1.4,0.6l15.9,5.6c5.5,1.9,9.9,6.2,12,11.7l6.1,15.7
		c0.2,0.5,0.4,1,0.6,1.4l7.3,15.2c2.5,5.3,2.6,11.4,0.2,16.7L134.7,98c-0.2,0.5-0.4,0.9-0.6,1.4l-5.6,15.9c-1.9,5.5-6.2,9.9-11.7,12
		l-15.7,6.1c-0.5,0.2-1,0.4-1.4,0.6l-15.2,7.3c-2.7,1.3-5.7,2-8.6,2c-2.8,0-5.5-0.6-8.1-1.7l-15.4-6.8c-0.5-0.2-0.9-0.4-1.4-0.6
		l-15.9-5.6c-5.5-1.9-9.9-6.2-12-11.7L17,101.1c-0.2-0.5-0.4-1-0.6-1.4L9.1,84.5c-2.5-5.3-2.6-11.4-0.2-16.7l6.8-15.4
		c0.2-0.5,0.4-0.9,0.6-1.4l5.6-15.9c1.9-5.5,6.2-9.9,11.7-12L49.2,17c0.5-0.2,1-0.4,1.4-0.6l15.2-7.3C68.6,7.8,71.5,7.2,74.5,7.2
		 M74.5,3.2L74.5,3.2c-3.6,0-7.1,0.8-10.3,2.3l-15.2,7.3c-0.4,0.2-0.8,0.3-1.1,0.5l-15.7,6.1c-6.5,2.5-11.6,7.8-14,14.4l-5.6,15.9
		c-0.1,0.4-0.3,0.8-0.5,1.1L5.2,66.2c-2.8,6.4-2.7,13.7,0.3,20.1l7.3,15.2c0.2,0.4,0.3,0.8,0.5,1.1l6.1,15.7
		c2.5,6.5,7.8,11.6,14.4,14l15.9,5.6c0.4,0.1,0.8,0.3,1.1,0.5l15.4,6.8c3.1,1.4,6.3,2.1,9.7,2.1c3.6,0,7.1-0.8,10.3-2.3l15.2-7.3
		c0.4-0.2,0.8-0.3,1.1-0.5l15.7-6.1c6.5-2.5,11.6-7.8,14-14.4l5.6-15.9c0.1-0.4,0.3-0.8,0.5-1.1l6.8-15.4c2.8-6.4,2.7-13.7-0.3-20.1
		l-7.3-15.2c-0.2-0.4-0.3-0.8-0.5-1.1L131,32.1c-2.5-6.5-7.8-11.6-14.4-14l-15.9-5.6c-0.4-0.1-0.8-0.3-1.1-0.5L84.2,5.2
		C81.1,3.8,77.8,3.2,74.5,3.2L74.5,3.2z"/>
</g>
<g id="CLOTH">
	
		<pattern  id="SVGID_1_" xlink:href="#Table_Cloth_Bule" patternTransform="matrix(8.531622e-002 -1.237332e-003 1.237332e-003 8.531622e-002 -6962.9727 -6842.877)">
	</pattern>
	<path class="st4" d="M82.6,8.9L98,15.7c0.5,0.2,0.9,0.4,1.4,0.6l15.9,5.6c5.5,1.9,9.9,6.2,12,11.7l6.1,15.7c0.2,0.5,0.4,1,0.6,1.4
		l7.3,15.2c2.5,5.3,2.6,11.4,0.2,16.7L134.7,98c-0.2,0.5-0.4,0.9-0.6,1.4l-5.6,15.9c-1.9,5.5-6.2,9.9-11.7,12l-15.7,6.1
		c-0.5,0.2-1,0.4-1.4,0.6l-15.2,7.3c-5.3,2.5-11.4,2.6-16.7,0.2l-15.4-6.8c-0.5-0.2-0.9-0.4-1.4-0.6l-15.9-5.6
		c-5.5-1.9-9.9-6.2-12-11.7L17,101.1c-0.2-0.5-0.4-1-0.6-1.4L9.1,84.5c-2.5-5.3-2.6-11.4-0.2-16.7l6.8-15.4c0.2-0.5,0.4-0.9,0.6-1.4
		l5.6-15.9c1.9-5.5,6.2-9.9,11.7-12L49.2,17c0.5-0.2,1-0.4,1.4-0.6l15.2-7.3C71.1,6.6,77.2,6.5,82.6,8.9z"/>
</g>
</svg>
