<?xml version="1.0" encoding="utf-8"?>
<!-- Generator: Adobe Illustrator 19.2.1, SVG Export Plug-In . SVG Version: 6.00 Build 0)  -->
<svg version="1.1" id="Capa_1" xmlns="http://www.w3.org/2000/svg" xmlns:xlink="http://www.w3.org/1999/xlink" x="0px" y="0px"
	 viewBox="0 0 222 222" style="enable-background:new 0 0 222 222;" xml:space="preserve">
<style type="text/css">
	.st0{fill:#FFCC00;}
	.st1{fill:#FFFFFF;}
	.st2{display:none;fill:#FFFFFF;}
</style>
<g>
	<path class="st0" d="M34.3,204.7c-9.4,0-17-7.6-17-17V34.3c0-9.4,7.6-17,17-17h153.3c9.4,0,17,7.6,17,17v153.3c0,9.4-7.6,17-17,17
		H34.3z"/>
	<path class="st1" d="M187.7,34.3v153.3H34.3V34.3H187.7 M187.7,0.3H34.3c-18.8,0-34,15.2-34,34v153.3c0,18.8,15.2,34,34,34h153.3
		c18.8,0,34-15.2,34-34V34.3C221.7,15.6,206.4,0.3,187.7,0.3L187.7,0.3z"/>
</g>
<path class="st2" d="M169.7,105.7L110.3,165c-1.8,1.8-3.9,2.7-6.3,2.7c-2.4,0-4.5-0.9-6.3-2.7l-41.3-41.3c-1.8-1.8-2.7-3.9-2.7-6.3
	c0-2.4,0.9-4.5,2.7-6.3l14.3-14.3c1.8-1.8,3.9-2.7,6.3-2.7s4.5,0.9,6.3,2.7l20.7,20.7l38.7-38.7c1.8-1.8,3.9-2.7,6.3-2.7
	s4.6,0.9,6.3,2.7l14.3,14.3c1.8,1.8,2.7,3.9,2.7,6.3C172.4,101.8,171.5,103.9,169.7,105.7z"/>
</svg>
