<svg id="Capa_1" data-name="Capa 1" xmlns="http://www.w3.org/2000/svg" viewBox="0 0 444.53 444.53"><defs><style>.cls-1{fill:#eddfc4;stroke:#000;stroke-miterlimit:10;stroke-width:6px;}</style></defs><title>unchecked</title><path class="cls-1" d="M409.13,109.2a218.35,218.35,0,0,0-79.8-79.8Q278.94,0,219.27,0T109.21,29.41a218.29,218.29,0,0,0-79.8,79.8Q0,159.6,0,219.27T29.41,329.33a218.35,218.35,0,0,0,79.8,79.8q50.4,29.41,110.06,29.41t110.07-29.41a218.29,218.29,0,0,0,79.8-79.8q29.4-50.39,29.4-110.06T409.13,109.2Zm-55.39,188a154.84,154.84,0,0,1-56.53,56.53,151.81,151.81,0,0,1-77.95,20.83,151.82,151.82,0,0,1-77.94-20.83A154.85,154.85,0,0,1,84.8,297.21,151.78,151.78,0,0,1,64,219.27,151.81,151.81,0,0,1,84.8,141.32a154.81,154.81,0,0,1,56.53-56.53A151.8,151.8,0,0,1,219.27,64a151.8,151.8,0,0,1,77.95,20.84,154.82,154.82,0,0,1,56.53,56.53,151.8,151.8,0,0,1,20.84,77.94A151.8,151.8,0,0,1,353.74,297.21Z" transform="translate(3 3)"/></svg>