<?xml version="1.0" encoding="utf-8"?>
<!-- Generator: Adobe Illustrator 19.2.1, SVG Export Plug-In . SVG Version: 6.00 Build 0)  -->
<svg version="1.1" id="Capa_1" xmlns="http://www.w3.org/2000/svg" xmlns:xlink="http://www.w3.org/1999/xlink" x="0px" y="0px"
	 viewBox="0 0 465 465" style="enable-background:new 0 0 465 465;" xml:space="preserve">
<style type="text/css">
	.st0{fill:#FF0066;}
</style>
<g>
	<path class="st0" d="M372.3,184.1c0-32.2-10.8-102.5-25.6-167.3C344.4,6.9,335.8,0,325.6,0H139.4c-10.2,0-18.9,6.9-21.1,16.8
		c-14.8,64.7-25.6,135.1-25.6,167.3c0,74.8,59,136,132.9,139.6v76.9c0,20.6-16.8,37.4-37.4,37.4h-29.5c-3.8,0-6.9,3.1-6.9,6.9
		s3.1,6.9,6.9,6.9c0,0,16.1,13.2,73.8,13.2c56.7,0,73.8-13.2,73.8-13.2c3.8,0,6.9-3.1,6.9-6.9s-3.1-6.9-6.9-6.9h-29.5
		c-20.6,0-37.4-16.8-37.4-37.4v-76.9C313.3,320,372.3,258.8,372.3,184.1z M106.6,184.1c0-26.8,8.7-91.8,25.2-164.2
		c0.8-3.5,4-6,7.6-6h186.2c3.6,0,6.8,2.5,7.6,6c16.6,72.3,25.2,137.4,25.2,164.2c0,69.4-56.5,125.9-125.9,125.9
		S106.6,253.5,106.6,184.1z M241.8,437.9h-18.7c3.7-3.4,6.8-7.4,9.3-11.7C235,430.6,238.2,434.5,241.8,437.9z"/>
	<path class="st0" d="M295.6,274.4c35.8-26.7,39.8-40.1,48.2-78.7c0.8-2.1,0.5-4.5-0.8-6.4c-1.3-1.9-3.4-3-5.7-3H129.2
		c-2.3,0-4.4,1.1-5.7,3s-1.6,4.3-0.8,6.4c2.2,7.9,1.3,36.8,46.7,78.7c18.6,13,40.4,19.9,63.1,19.9S277,287.4,295.6,274.4z"/>
	<path class="st0" d="M321.5,73.9c-3.8,0.7-6.2,4.3-5.5,8.1c4.9,26.6,8.8,52.7,11,73.3c0.4,3.6,3.4,6.2,6.9,6.2c0.2,0,0.5,0,0.7,0
		c3.8-0.4,6.6-3.8,6.1-7.6c-2.3-21.3-6.1-47-11.2-74.3C328.8,75.7,325.2,73.2,321.5,73.9z"/>
	<path class="st0" d="M310.1,52.6c0.7,3.3,3.6,5.5,6.8,5.5c0.5,0,0.9,0,1.4-0.1c3.7-0.8,6.1-4.4,5.4-8.2c-1-5-2.1-9.9-3.2-14.8
		c-0.8-3.7-4.5-6.1-8.2-5.3c-3.7,0.8-6.1,4.5-5.3,8.2C308.1,42.8,309.1,47.7,310.1,52.6z"/>
	<path class="st0" d="M136.1,166.7c0-13.9,4.3-39,9-68.7c0.6-3.8-2-7.3-5.8-7.9c-3.8-0.6-7.3,2-7.9,5.8c-4.7,30.4-9.1,56.2-9.1,70.8
		c0,3.8,3.1,6.9,6.9,6.9C133,173.6,136.1,170.5,136.1,166.7z"/>
	<path class="st0" d="M145.4,69.5c0.4,0.1,0.8,0.1,1.3,0.1c3.3,0,6.2-2.3,6.8-5.7c0.9-4.8,1.8-9.8,2.8-14.7c0.7-3.7-1.7-7.4-5.5-8.1
		c-3.7-0.7-7.4,1.7-8.1,5.5c-1,5-1.9,10-2.8,14.8C139.1,65.2,141.6,68.8,145.4,69.5z"/>
</g>
<path d="M276.6,200.5c-1.8-1.8-3.9-2.7-6.4-2.7s-4.6,0.9-6.4,2.7l-38.9,38.9l-20.8-20.8c-1.8-1.8-3.9-2.7-6.4-2.7s-4.6,0.9-6.4,2.7
	L177,233c-1.8,1.8-2.7,3.9-2.7,6.4c0,2.4,0.9,4.6,2.7,6.4l41.6,41.6c1.8,1.8,3.9,2.7,6.4,2.7c2.5,0,4.6-0.9,6.4-2.7l59.7-59.7
	c1.8-1.8,2.7-3.9,2.7-6.4c0-2.5-0.9-4.6-2.7-6.4L276.6,200.5z"/>
</svg>
